# xmcd
#
# Track frame offsets: 
#        150
#        19740
#        35132
#        47380
#        63497
#        77485
#        97190
#        114427
#        132302
#        152207
#
# Disc length: 2218 seconds
#
# Revision: 1
# Processed by: cddbd v1.5.1PL0 Copyright (c) Steve Scherf et al.
# Submitted via: ExactAudioCopy v0.95a5
#
DISCID=7f08a80a
DTITLE=Lucero - Un Nuevo Amor
DYEAR=2002
DGENRE=Rock
TTITLE0=Que alguien me diga
TTITLE1=Volver jamas
TTITLE2=Por ti
TTITLE3=Yo no te perdi
TTITLE4=Carta a Ufemia
TTITLE5=A quien voy a enganar
TTITLE6=Me gusta
TTITLE7=Lo he intentado todo
TTITLE8=Como te voy a olvidar
TTITLE9=Me duele la piel
EXTD=the album is the last one of lucero, she's from MExico, my name i
EXTD=s Miguel...
EXTT0=
EXTT1=
EXTT2=
EXTT3=
EXTT4=
EXTT5=
EXTT6=
EXTT7=
EXTT8=
EXTT9=
PLAYORDER=
